<?xml version="1.0" encoding="utf-8"?>
<!-- Generator: Adobe Illustrator 19.0.0, SVG Export Plug-In . SVG Version: 6.00 Build 0)  -->
<svg version="1.1" id="layer" xmlns="http://www.w3.org/2000/svg" xmlns:xlink="http://www.w3.org/1999/xlink" x="0px" y="0px"
	 viewBox="-153 -46 652 652" style="enable-background:new -153 -46 652 652;" xml:space="preserve">
<path d="M422.1,312.9l-0.8,0.3c-5,1.7-12.5,4.2-19.1,7.3c-0.4,0.2-0.6,0.6-0.6,0.6c-0.1,0.3-0.3,0.6-0.5,1l0,0.1
	c-0.7,1.7-1.8,4.3-2.2,5.3l-0.3,0.8c-0.1,0.1,0,0.3,0.1,0.4c0.1,0.1,0.1,0.1,0.2,0.1c0,0,0.1,0,0.2,0l0.8-0.4
	c1.8-0.9,4.1-2.2,6.6-3.3l0.1,0c4.6-2.2,9.8-4.7,12.9-6.1c0,0,0.5-0.3,0.8-0.8l2.3-4.7c0.1-0.1,0-0.3,0-0.4
	C422.3,312.9,422.2,312.9,422.1,312.9z"/>
<path d="M403.3,305.7c0.3-0.6,1.9-3.6,2.2-4.2l0.1-0.1c10.2-19.2,22.6-37.3,36.9-53.8l0.4-0.5c0.1-0.1,0.1-0.3,0.1-0.5
	c-0.1-0.2-0.3-0.3-0.5-0.2l-0.6,0.1c-9.4,1.3-18.9,3.1-28.2,5.3c-0.9,0.3-1.5,0.9-1.7,1c-7,8.4-13.6,17.2-19.7,26.2
	c-0.3,0.5-0.3,1.5-0.3,1.5s1.5,11.8,3.8,20.4c-5.5,15.9-10.5,36.8-10.5,36.8c0,0.1,0,0.3,0.1,0.4c0.1,0.1,0.2,0.2,0.4,0.2h3.1
	c0.2,0,0.4-0.1,0.4-0.3l0.2-0.6c3.2-8.8,6.9-17.4,10.9-25.8C401.3,309.6,403.3,305.7,403.3,305.7z"/>
<path d="M447,250.9l0-0.6c0-0.2-0.1-0.4-0.3-0.4c-0.2-0.1-0.4,0-0.5,0.1l-0.4,0.5c-16.6,19.3-30.6,40.6-41.6,63.5l-0.3,0.5
	c-0.1,0.2,0,0.4,0.1,0.5c0.1,0.1,0.2,0.1,0.3,0.1c0.1,0,0.1,0,0.2,0l0.5-0.2c9.4-3.9,18.9-7.2,28.4-10c0.6-0.2,1-0.6,1.3-1.1
	c4.2-8.1,13.8-23.8,13.8-23.8c0.2-0.4,0.2-0.9,0.2-0.9S447.2,260.4,447,250.9z"/>
<path d="M468.6,223.9c-2.4-2-5.8-3-11.1-3.1c-4.8-0.1-10.6,0.9-17.1,3.1c-1,0.3-1.8,0.9-2.4,1.6c-6.6,6.2-13.1,12.8-19.1,19.6
	l-0.5,0.5c-0.1,0.1-0.1,0.4-0.1,0.5c0.1,0.2,0.3,0.3,0.5,0.2l0.7-0.1c9.8-2.1,19.7-3.7,29.4-4.8c0.6-0.1,1.3,0.1,1.8,0.6
	c0.5,0.4,0.8,1.1,0.7,1.7c-0.2,9.6,0.2,19.3,1,28.8l0.1,0.6c0,0.2,0.1,0.3,0.3,0.4c0,0,0.1,0,0.1,0c0.1,0,0.3-0.1,0.4-0.2l0.4-0.5
	c5.5-7.8,11.4-15.4,17.7-22.6l0,0c0.7-0.8,0.9-1.3,1-2C474.3,235.6,471.3,226.2,468.6,223.9z"/>
<path d="M18,252c-5.7,0-11.7,2.8-15.4,7.1H2.4v-26.8H-8v78.1h9.5v-5.5h0.2c3.6,4.2,10.3,7.1,16,7.1c15,0,24.6-11.8,24.6-29.9
	C42.4,264.3,32.3,252,18,252z M16.2,302.4c-7.8,0-13.8-5.3-13.8-12.4v-15.2c0-7.6,6-13.4,13.8-13.4c10.2,0,15.8,7.4,15.8,20.4
	C32,295.1,26.3,302.4,16.2,302.4z"/>
<path d="M-41.7,252c-15.4,0-26,12.3-26,29.9c0,18.1,10.3,29.9,26,29.9c15.5,0,25.7-11.9,25.7-29.9C-16,264.3-26.5,252-41.7,252z
	 M-41.7,302.4c-9.7,0-15.7-7.9-15.7-20.5c0-12.6,6-20.4,15.7-20.4c9.4,0,15.4,8,15.4,20.4C-26.3,294.4-32.3,302.4-41.7,302.4z"/>
<path d="M-72.5,257.1c0-13.3-9.8-21.7-25.2-21.7H-127v74.9h10.7v-29.6h15.3c11.8,0,16,4.7,16,17.8v11.9h10.4v-11.9
	c0-11.9-3.6-19-11.6-22C-78,273.6-72.5,266.9-72.5,257.1z M-98.6,271.1h-17.8v-26h17.6c10.2,0,15.4,4.4,15.4,13
	C-83.3,266.5-88.6,271.1-98.6,271.1z"/>
<path d="M98.9,252c-6,0-12.4,2.9-15.5,7.1h-0.2v-5.5H73.1v56.7h10.4v-35.6c0-8,5.2-13,13.5-13c8.1,0,12,4.7,12,14.5v34.1h10.5v-37.1
	C119.4,260.1,111.5,252,98.9,252z"/>
<path d="M268.1,252c-15.4,0-26,12.3-26,29.9c0,18.1,10.3,29.9,26,29.9c15.5,0,25.7-11.9,25.7-29.9C293.8,264.3,283.3,252,268.1,252z
	 M268.1,302.4c-9.7,0-15.7-7.9-15.7-20.5c0-12.6,6-20.4,15.7-20.4c9.4,0,15.4,8,15.4,20.4C283.5,294.4,277.5,302.4,268.1,302.4z"/>
<path d="M340.2,232.2V259H340c-3.7-4.4-9.6-7.1-15.3-7.1c-14.3,0-24.5,12.5-24.5,29.9c0,18.2,9.6,29.9,24.6,29.9
	c5.8,0,12.4-2.9,16-7.1h0.2v5.5h9.5v-78.1C350.5,232.2,340.2,232.2,340.2,232.2z M340.2,290c0,7.1-6,12.4-13.8,12.4
	c-10.2,0-15.8-7.4-15.8-20.5c0-13,5.7-20.4,15.8-20.4c7.8,0,13.8,5.8,13.8,13.4V290z"/>
<path d="M210,252c-15.4,0-26,12.3-26,29.9c0,18.1,10.3,29.9,26,29.9c15.5,0,25.7-11.9,25.7-29.9C235.7,264.3,225.2,252,210,252z
	 M210,302.4c-9.7,0-15.7-7.9-15.7-20.5c0-12.6,6-20.4,15.7-20.4c9.4,0,15.4,8,15.4,20.4C225.4,294.4,219.5,302.4,210,302.4z"/>
<rect x="50.5" y="232.2" width="11.2" height="11"/>
<path d="M156.4,252c-6.3,0-12.7,3-15.7,7.3h-0.2v-27.1h-10.4v78.1h10.4v-35.6c0-7.7,5.6-13,13.5-13c7.8,0,12.3,5.1,12.3,14v34.6
	h10.4V273C176.6,260.1,168.8,252,156.4,252z"/>
<rect x="50.9" y="253.6" width="10.4" height="56.7"/>
</svg>
